:SAMPLES-PER-SECOND 30
:FRAME-RANGE 1-2775
:FULLY-SPECIFIED
:DEGREES
868
root  82.2361 39.8665 -29.9805 2.15329 -2.6433 0.330292
RightUpLeg  -4.20598 -3.55106 0.641955
RightLeg  13.1106 -5.43501 -1.27273
RightFoot  -12.9151 0.0231449 8.06537
RightToes  -5.28216e-011 1.2921e-014 -6.02303e-014
Spine  8.35849 -0.636109 -1.90925
Spine1  -3.03609 -0.798117 0.18078
HEad  5.70622 -9.93446 3.01504
LeftShoulder1  1.32576 0.10784 -32.9803
LeftArm  23.4384 11.2464 -25.751
LeftForeArm  -3.79195 -14.4848 -12.8127
LeftHand  0.225014 -0.323409 -4.56977
RightShoulder  4.85529 5.02772 49.8824
RightArm  11.671 -3.79062 14.3727
RightForeArm  18.0329 1.11606 16.9785
RightHand  0.227421 9.06195 1.42575
LeftUpLeg  -8.87468 10.2574 7.19362
LeftLeg  8.10696 -10.993 -4.10054
LeftFoot  -1.85412 0.863873 -10.2573
LeftToes  -2.158e-010 -1.26819e-010 -1.05346e-011
869
root  82.4357 39.8785 -29.892 2.75543 -6.46088 0.295975
RightUpLeg  -6.73764 -6.21388 0.0612925
RightLeg  15.1778 -7.57425 -2.13975
RightFoot  -12.267 -0.0200259 7.83319
RightToes  -5.28216e-011 1.2921e-014 -6.02303e-014
Spine  8.50458 -0.549914 -2.0557
Spine1  -3.48526 -0.629472 -0.388643
HEad  5.4635 -8.43676 2.38757
LeftShoulder1  1.30939 0.179108 -33.3212
LeftArm  20.8993 10.4644 -24.5859
LeftForeArm  -1.55588 -13.1189 -13.6842
LeftHand  0.276267 -0.522922 -5.40302
RightShoulder  4.45694 4.40366 49.4131
RightArm  16.4129 -5.00172 14.5163
RightForeArm  14.1854 3.96166 16.7707
RightHand  0.300671 9.36742 1.95699
LeftUpLeg  -8.69607 10.8064 7.229
LeftLeg  8.29957 -7.88148 -3.91879
LeftFoot  -2.34878 0.781044 -9.73723
LeftToes  -2.158e-010 -1.26819e-010 -1.05346e-011
870
root  82.586 39.8849 -29.8094 3.05684 -10.1799 0.29007
RightUpLeg  -9.07196 -8.1765 -0.646019
RightLeg  16.6934 -8.73116 -2.95725
RightFoot  -10.4053 -0.1306 7.31487
RightToes  -5.28216e-011 1.2921e-014 -6.02303e-014
Spine  8.77329 -0.565512 -2.17675
Spine1  -3.63018 -0.591757 -0.79398
HEad  4.76388 -6.65165 1.58104
LeftShoulder1  1.27706 0.260369 -33.3099
LeftArm  16.6435 10.1273 -24.1032
LeftForeArm  0.935909 -11.7373 -14.3248
LeftHand  0.2163 -0.0960396 -4.60332
RightShoulder  4.43594 4.39065 49.262
RightArm  20.4192 -5.90227 14.3325
RightForeArm  12.4269 6.20644 16.2753
RightHand  0.381897 9.5437 2.55509
LeftUpLeg  -8.11842 11.3681 7.41601
LeftLeg  8.33676 -4.92418 -3.8806
LeftFoot  -2.93751 0.727354 -9.64489
LeftToes  -2.158e-010 -1.26819e-010 -1.05346e-011
871
root  82.6924 39.896 -29.7287 3.37047 -13.1967 0.129593
RightUpLeg  -11.1334 -9.66099 -1.51793
RightLeg  17.1348 -8.38654 -2.99607
RightFoot  -8.07991 -0.257011 7.0866
RightToes  -5.28216e-011 1.2921e-014 -6.02303e-014
Spine  9.09066 -0.80009 -2.14051
Spine1  -3.84532 -0.823871 -0.827083
HEad  4.34509 -4.75975 0.695807
LeftShoulder1  1.27381 0.269127 -33.316
LeftArm  15.171 9.97554 -23.9357
LeftForeArm  1.01357 -11.5457 -14.3638
LeftHand  0.188396 0.104529 -4.18789
RightShoulder  4.31527 4.22213 48.9695
RightArm  22.1717 -6.32431 14.3588
RightForeArm  12.6307 7.23599 15.8871
RightHand  0.377414 9.56725 2.51541
LeftUpLeg  -7.71057 11.7382 7.65871
LeftLeg  8.44 -2.44967 -3.74618
LeftFoot  -3.41441 0.6872 -9.60752
LeftToes  -2.158e-010 -1.26819e-010 -1.05346e-011
872
root  82.7272 39.8806 -29.6483 3.67836 -15.687 0.17247
RightUpLeg  -13.0818 -9.75241 -2.90863
RightLeg  17.0684 -8.10731 -2.92811
RightFoot  -7.20549 -0.349532 8.30607
RightToes  -5.28216e-011 1.2921e-014 -6.02303e-014
Spine  9.49241 -1.06471 -2.14173
Spine1  -4.24195 -1.06417 -0.984983
HEad  3.9079 -3.04366 0.0998573
LeftShoulder1  1.25549 0.302996 -33.1609
LeftArm  15.6619 9.66189 -24.159
LeftForeArm  0.796643 -12.1821 -13.954
LeftHand  0.170246 0.186498 -3.8569
RightShoulder  4.08141 3.80497 48.9651
RightArm  23.098 -6.63095 14.2117
RightForeArm  11.9845 7.84541 15.6757
RightHand  0.336987 9.87279 2.14599
LeftUpLeg  -7.47325 11.9128 7.70224
LeftLeg  8.60023 -0.268385 -3.60256
LeftFoot  -3.82093 0.652336 -9.56205
LeftToes  -2.158e-010 -1.26819e-010 -1.05346e-011
873
root  82.6642 39.8823 -29.5558 3.89761 -17.3114 -0.0888519
RightUpLeg  -14.4381 -9.54006 -4.19946
RightLeg  16.3394 -8.40178 -2.86655
RightFoot  -6.32199 -0.406231 8.2708
RightToes  -5.28216e-011 1.2921e-014 -6.02303e-014
Spine  9.8383 -1.37264 -2.0481
Spine1  -4.34339 -1.42496 -0.587759
HEad  3.55911 -1.67633 -0.205228
LeftShoulder1  1.25618 0.29555 -33.0921
LeftArm  17.1664 9.18596 -24.6952
LeftForeArm  0.163742 -13.5966 -12.9967
LeftHand  0.175019 -0.0500144 -3.76095
RightShoulder  3.80246 3.2837 49.1308
RightArm  25.1997 -6.95115 13.8448
RightForeArm  8.25781 9.09856 15.3666
RightHand  0.349543 9.57409 2.29867
LeftUpLeg  -7.17633 12.0432 8.04328
LeftLeg  8.71538 1.14064 -3.29267
LeftFoot  -4.06162 0.634015 -9.5689
LeftToes  -2.158e-010 -1.26819e-010 -1.05346e-011
874
root  82.515 39.8688 -29.4714 4.04553 -18.6484 -0.231384
RightUpLeg  -15.5971 -8.51411 -5.74765
RightLeg  15.3398 -8.77788 -2.80328
RightFoot  -4.84616 -0.492835 8.08949
RightToes  -5.28216e-011 1.2921e-014 -6.02303e-014
Spine  9.90378 -1.36939 -2.25503
Spine1  -3.97996 -1.55475 0.252514
HEad  3.18097 -0.682868 -0.505086
LeftShoulder1  1.29481 0.20481 -33.1868
LeftArm  19.1968 8.30444 -25.6133
LeftForeArm  -1.62272 -15.4616 -11.6118
LeftHand  0.178508 -0.268858 -3.66036
RightShoulder  3.58114 2.9094 48.9796
RightArm  22.8104 -7.2368 13.6454
RightForeArm  8.71182 8.4624 15.5214
RightHand  0.385489 9.29287 2.63803
LeftUpLeg  -6.83743 12.0631 8.37614
LeftLeg  8.79813 2.31791 -2.95809
LeftFoot  -4.35084 0.62919 -9.85746
LeftToes  -2.158e-010 -1.26819e-010 -1.05346e-011
